<?xml version="1.0" standalone="no"?><!DOCTYPE svg PUBLIC "-//W3C//DTD SVG 1.1//EN" "http://www.w3.org/Graphics/SVG/1.1/DTD/svg11.dtd"><svg t="1589421241790" class="icon" viewBox="0 0 1024 1024" version="1.1" xmlns="http://www.w3.org/2000/svg" p-id="821" data-spm-anchor-id="a313x.7781069.0.i2" xmlns:xlink="http://www.w3.org/1999/xlink" width="200" height="200"><defs><style type="text/css"></style></defs><path d="M901.260326 829.366993l-49.391882-499.674074c-3.347911-34.98477-32.790756-61.661867-67.934814-61.554726h-88.308623a195.795437 195.795437 0 0 0-57.253926-96.594489 195.67123 195.67123 0 0 0-133.204385-52.1216c-90.113896-0.071111-168.680296 61.274074-190.463052 148.716089h-75.025066c-35.143111-0.106193-64.585007 26.568059-67.935763 61.550933l-49.390934 499.674074a68.388978 68.388978 0 0 0 17.344475 52.551111 68.390874 68.390874 0 0 0 50.591288 22.431289h643.034075a68.386133 68.386133 0 0 0 50.59034-22.431289 68.39277 68.39277 0 0 0 17.348267-52.547318zM505.166696 180.107378c57.287111 0 107.452681 36.56723 126.934282 88.034607H378.119585c19.823881-52.986311 70.473956-88.082963 127.047111-88.034607z m333.779437 661.066903a7.407881 7.407881 0 0 1-5.62157 2.492682h-643.034074a7.410726 7.410726 0 0 1-5.62157-2.492682 7.411674 7.411674 0 0 1-1.927586-5.838696l49.391882-499.674074a7.559585 7.559585 0 0 1 7.548207-6.839941h544.252208a7.560533 7.560533 0 0 1 7.548207 6.838993l49.390933 499.674074a7.412622 7.412622 0 0 1-1.926637 5.839644z" fill="#2c2c2c" p-id="822"></path><path d="M677.731556 722.57043h-331.851852c-16.756622 0-30.340741 13.584119-30.340741 30.34074s13.584119 30.340741 30.340741 30.340741h331.851852c16.756622 0 30.340741-13.584119 30.34074-30.340741s-13.584119-30.340741-30.34074-30.34074z" fill="#2c2c2c" p-id="823"></path></svg>