<?xml version="1.0" standalone="no"?><!DOCTYPE svg PUBLIC "-//W3C//DTD SVG 1.1//EN" "http://www.w3.org/Graphics/SVG/1.1/DTD/svg11.dtd"><svg t="1589421289274" class="icon" viewBox="0 0 1024 1024" version="1.1" xmlns="http://www.w3.org/2000/svg" p-id="1128" xmlns:xlink="http://www.w3.org/1999/xlink" width="200" height="200"><defs><style type="text/css"></style></defs><path d="M901.259378 829.367941l-49.390934-499.674074c-3.351704-34.982874-32.7936-61.658074-67.936711-61.550934h-88.307674a196.040059 196.040059 0 0 0-58.84397-98.048948 195.853274 195.853274 0 0 0-131.614341-50.668089 196.032474 196.032474 0 0 0-130.019555 49.243023 196.273304 196.273304 0 0 0-60.431171 99.474962h-75.037392c-35.142163-0.107141-64.585007 26.568059-67.935763 61.550934l-49.390934 499.674074a68.393719 68.393719 0 0 0 17.345423 52.551111 68.38803 68.38803 0 0 0 50.59034 22.430341h643.034074a68.402252 68.402252 0 0 0 50.591289-22.430341 68.39277 68.39277 0 0 0 17.347319-52.552059zM505.165748 180.10643c56.6016-0.123259 107.298133 34.999941 127.070815 88.036503H378.150874c19.932919-52.887704 70.497659-87.934104 127.014874-88.036503z m172.562963 603.145481h-331.851852c-16.756622 0-30.340741-13.58317-30.34074-30.340741 0-16.756622 13.584119-30.340741 30.34074-30.34074h331.851852c16.756622 0 30.340741 13.584119 30.340741 30.34074 0 16.755674-13.582222 30.339793-30.337896 30.340741h-0.002845z" fill="#d81e06" p-id="1129"></path></svg>