<?xml version="1.0" standalone="no"?><!DOCTYPE svg PUBLIC "-//W3C//DTD SVG 1.1//EN" "http://www.w3.org/Graphics/SVG/1.1/DTD/svg11.dtd"><svg t="1589421331203" class="icon" viewBox="0 0 1024 1024" version="1.1" xmlns="http://www.w3.org/2000/svg" p-id="1652" xmlns:xlink="http://www.w3.org/1999/xlink" width="200" height="200"><defs><style type="text/css"></style></defs><path d="M511.632119 574.164385A241.8944 241.8944 0 0 0 683.804444 502.847526a241.891556 241.891556 0 0 0 71.31686-172.171378A241.884919 241.884919 0 0 0 683.804444 158.503822a241.8944 241.8944 0 0 0-172.172325-71.315911 241.8944 241.8944 0 0 0-172.172326 71.315911 241.897244 241.897244 0 0 0-71.314963 172.172326 241.886815 241.886815 0 0 0 71.314963 172.171378 241.896296 241.896296 0 0 0 172.172326 71.316859z" fill="#d81e06" p-id="1653"></path><path d="M889.198933 727.262815a395.01843 395.01843 0 0 0-98.465185-164.427852 393.417956 393.417956 0 0 0-46.174815-39.61363 304.805926 304.805926 0 0 1-43.899259 43.254519 300.884385 300.884385 0 0 1-189.022815 66.531555 300.930844 300.930844 0 0 1-188.880592-66.417777 304.857126 304.857126 0 0 1-43.927704-43.226074c-1.801481 1.317926-3.602963 2.654815-5.38643 4.010666a395.3664 395.3664 0 0 0-40.788385 35.602963 395.930548 395.930548 0 0 0-41.841778 49.360593 392.020385 392.020385 0 0 0-56.765629 115.124148 394.55763 394.55763 0 0 0-16.76326 114.270815v26.045629c0.043615 37.685096 30.58157 68.223052 68.266667 68.266667h652.325926c37.685096-0.043615 68.223052-30.58157 68.266667-68.266667v-26.045629a393.998222 393.998222 0 0 0-16.943408-114.469926z" fill="#d81e06" p-id="1654"></path></svg>